<svg width="111" height="31" viewBox="0 0 111 31" fill="none" xmlns="http://www.w3.org/2000/svg">
<path d="M10.8151 6.44666H0.0708008V24.8374H10.8151C13.5574 24.8374 16.0337 23.8136 17.8346 22.1451C19.6356 20.4767 20.7407 18.1826 20.7407 15.642C20.7407 10.5609 16.2997 6.44666 10.8151 6.44666ZM13.3937 18.3153C12.6569 18.9979 11.6337 19.4339 10.5081 19.4339H6.10805V12.0397H10.7127C12.8616 12.0397 14.6011 13.6513 14.6011 15.642C14.6011 16.6848 14.1509 17.6328 13.3937 18.3153Z" fill="#FE8A90"/>
<path d="M23.606 2.65433V7.963H44.4805V0L23.606 2.65433Z" fill="#FE8A90"/>
<path d="M44.4805 28.3457V23.037H23.606V31L44.4805 28.3457Z" fill="#FE8A90"/>
<path d="M44.4805 12.7972H23.606V18.1059H44.4805V12.7972Z" fill="#FE8A90"/>
<path d="M78.37 6.44666C72.8853 6.44666 68.4443 10.5609 68.4443 15.642C68.4443 20.7232 72.8853 24.8374 78.37 24.8374C83.8547 24.8374 88.2956 20.7232 88.2956 15.642C88.2956 10.5609 83.8342 6.44666 78.37 6.44666ZM78.37 19.4908C76.0779 19.4908 74.2155 17.7655 74.2155 15.642C74.2155 13.5186 76.0779 11.7932 78.37 11.7932C80.6621 11.7932 82.5244 13.5186 82.5244 15.642C82.5244 17.7655 80.6621 19.4908 78.37 19.4908Z" fill="#FE8A90"/>
<path d="M61.2209 16.7986L66.6033 18.7324C65.1707 22.4295 61.2414 25.0459 56.6776 24.7995C51.6022 24.534 47.5296 20.6853 47.3455 15.9833C47.1203 10.7694 51.6432 6.44666 57.2506 6.44666C61.5688 6.44666 65.2525 9.00619 66.6033 12.5706L61.2209 14.5045C60.7093 12.9308 59.113 11.7743 57.2506 11.7743C54.8767 11.7743 52.9734 13.6134 53.0962 15.8506C53.219 17.8413 55.0199 19.4529 57.1688 19.4908C59.072 19.5287 60.6888 18.3912 61.2209 16.7986Z" fill="#FE8A90"/>
<path d="M100.145 6.44666C94.6607 6.44666 90.2197 10.5609 90.2197 15.642C90.2197 20.7232 94.6607 24.8374 100.145 24.8374C105.63 24.8374 110.071 20.7232 110.071 15.642C110.071 10.5609 105.63 6.44666 100.145 6.44666ZM100.145 19.4908C97.8533 19.4908 95.9909 17.7655 95.9909 15.642C95.9909 13.5186 97.8533 11.7932 100.145 11.7932C102.437 11.7932 104.3 13.5186 104.3 15.642C104.3 17.7655 102.437 19.4908 100.145 19.4908Z" fill="#FE8A90"/>
</svg>
