<svg width="113" height="125" viewBox="0 0 113 125" fill="none" xmlns="http://www.w3.org/2000/svg">
<path fill-rule="evenodd" clip-rule="evenodd" d="M37.6681 35.7293C34.5788 35.0149 31.4967 36.9387 30.7831 40.0247C30.0695 43.1107 31.9941 46.1923 35.0834 46.9067C38.1727 47.621 41.2548 45.6972 41.9684 42.6112C42.682 39.5252 40.7574 36.4436 37.6681 35.7293ZM28.8345 39.5741C29.7972 35.4109 33.9543 32.8177 38.1187 33.7807C42.283 34.7437 44.8797 38.8985 43.917 43.0618C42.9543 47.2251 38.7972 49.8182 34.6328 48.8553C30.4685 47.8923 27.8718 43.7374 28.8345 39.5741Z" fill="#BBA390"/>
<path fill-rule="evenodd" clip-rule="evenodd" d="M29.3873 1.11457C29.9314 1.01999 30.4492 1.38442 30.5437 1.92854L37.3609 41.1474C37.4555 41.6915 37.091 42.2093 36.5469 42.3039C36.0028 42.3984 35.485 42.034 35.3904 41.4899L28.5733 2.27105C28.4787 1.72693 28.8431 1.20915 29.3873 1.11457Z" fill="#BBA390"/>
<path fill-rule="evenodd" clip-rule="evenodd" d="M65.1164 57.548C65.411 57.7951 65.5378 58.1894 65.4425 58.562L62.9136 68.4448L69.6705 76.0933C69.9213 76.3772 69.9902 76.7785 69.8483 77.1298C69.7065 77.4811 69.3783 77.722 69.0006 77.7522L58.8289 78.5638L53.8668 87.3905C53.6793 87.7241 53.3178 87.9214 52.9357 87.8987C52.5537 87.876 52.2181 87.6372 52.0715 87.2837L48.1554 77.8452L38.1981 75.5427C37.8273 75.457 37.5374 75.1683 37.4501 74.798C37.3627 74.4276 37.4931 74.0398 37.7865 73.7975L45.6089 67.3359L44.5628 57.1146C44.524 56.7352 44.7044 56.3667 45.0278 56.1647C45.3513 55.9626 45.7616 55.9622 46.0855 56.1635L54.8169 61.5904L64.0611 57.4032C64.4114 57.2445 64.8217 57.3008 65.1164 57.548ZM62.9884 60.0847L55.1554 63.6327C54.8512 63.7704 54.4984 63.7473 54.2149 63.5711L46.7598 58.9375L47.653 67.6644C47.687 67.9969 47.5527 68.3244 47.295 68.5372L40.6209 74.0502L49.1072 76.0126C49.4217 76.0853 49.6818 76.3054 49.8055 76.6036L53.1309 84.6183L57.3466 77.1193C57.5098 76.829 57.8068 76.639 58.1388 76.6125L66.8467 75.9177L61.0641 69.3721C60.8448 69.1238 60.7626 68.7831 60.8447 68.4621L62.9884 60.0847Z" fill="#BBA390"/>
<path fill-rule="evenodd" clip-rule="evenodd" d="M29.4025 20.5027C25.7854 19.6663 21.903 21.9152 21.0203 25.7323L14.0505 55.8734C13.5968 57.8358 13.8562 59.671 14.8198 61.2139C14.82 61.2143 14.8203 61.2147 14.8205 61.2151L45.9193 110.656C45.927 110.668 45.9343 110.68 45.9414 110.693C47.8402 114.021 52.2879 115.049 55.455 112.893C55.466 112.885 55.4771 112.878 55.4884 112.871L91.7194 90.2642C95.1432 88.1279 96.1246 83.8836 93.9862 80.4611L62.568 30.1761C61.6038 28.6328 60.0671 27.5935 58.1026 27.1392L29.4025 20.5027ZM19.0718 25.2817C20.2126 20.3481 25.2006 17.4783 29.8531 18.5541L58.5532 25.1907C60.9666 25.7487 62.9842 27.0677 64.2642 29.1163L95.6824 79.4013C98.4063 83.761 97.1394 89.2397 92.7781 91.961L56.5636 114.557C52.4392 117.351 46.695 116.024 44.2152 111.703L13.126 62.2774L13.1244 62.2749C11.8444 60.2262 11.5441 57.8353 12.102 55.4228L19.0718 25.2817Z" fill="#BBA390"/>
</svg>
