<svg width="117" height="101" viewBox="0 0 117 101" fill="none" xmlns="http://www.w3.org/2000/svg">
<path fill-rule="evenodd" clip-rule="evenodd" d="M52.7544 18.104C53.3035 18.1628 53.701 18.6557 53.6422 19.2048L49.7687 55.3715C49.7243 55.7863 49.427 56.1299 49.023 56.2336C48.6189 56.3373 48.1929 56.1793 47.9542 55.8371L30.4271 30.7114C30.1111 30.2584 30.2222 29.6351 30.6751 29.3191C31.1281 29.0031 31.7515 29.1141 32.0674 29.5671L48.0648 52.4999L51.6536 18.9919C51.7124 18.4427 52.2052 18.0452 52.7544 18.104Z" fill="#BBA390"/>
<path fill-rule="evenodd" clip-rule="evenodd" d="M11.023 39.7538C11.5208 39.5145 12.1183 39.7241 12.3575 40.2219L34.9788 87.2931L63.9479 82.2185C64.4919 82.1232 65.0102 82.487 65.1055 83.031C65.2007 83.575 64.837 84.0932 64.293 84.1885L34.5781 89.3938C34.1369 89.471 33.6982 89.2456 33.5042 88.8419L10.5549 41.0882C10.3156 40.5904 10.5252 39.993 11.023 39.7538Z" fill="#BBA390"/>
<path fill-rule="evenodd" clip-rule="evenodd" d="M30.6956 29.2256C31.2461 29.1815 31.7281 29.592 31.7722 30.1425L34.2301 60.8248C34.2631 61.2371 34.039 61.6272 33.6661 61.8062C33.2933 61.9852 32.8487 61.9162 32.5477 61.6326L11.0062 41.3422C10.6042 40.9636 10.5852 40.3307 10.9639 39.9287C11.3426 39.5266 11.9755 39.5077 12.3775 39.8864L32.0292 58.3968L29.7786 30.3022C29.7345 29.7517 30.145 29.2697 30.6956 29.2256Z" fill="#BBA390"/>
<path fill-rule="evenodd" clip-rule="evenodd" d="M34.233 87.424C34.777 87.3287 35.2953 87.6925 35.3906 88.2365L36.7539 96.0189C36.8492 96.5629 36.4854 97.0812 35.9414 97.1765C35.3974 97.2718 34.8792 96.908 34.7839 96.364L33.4206 88.5816C33.3253 88.0376 33.689 87.5193 34.233 87.424Z" fill="#BBA390"/>
<path fill-rule="evenodd" clip-rule="evenodd" d="M38.1989 65.8657C38.6958 65.6246 39.294 65.832 39.5351 66.3289L46.3827 80.4428C46.6238 80.9397 46.4164 81.5379 45.9195 81.779C45.4226 82.0201 44.8244 81.8127 44.5833 81.3158L37.7357 67.2019C37.4946 66.705 37.702 66.1068 38.1989 65.8657Z" fill="#BBA390"/>
<path fill-rule="evenodd" clip-rule="evenodd" d="M51.9503 61.4759C52.4823 61.3277 53.0338 61.6388 53.182 62.1709L57.7659 78.6258C57.9141 79.1578 57.603 79.7093 57.071 79.8575C56.5389 80.0057 55.9875 79.6946 55.8393 79.1625L51.2553 62.7076C51.1071 62.1756 51.4183 61.6241 51.9503 61.4759Z" fill="#BBA390"/>
<path fill-rule="evenodd" clip-rule="evenodd" d="M29.1425 22.2859C27.2118 22.6241 25.9208 24.4634 26.259 26.394C26.5972 28.3247 28.4365 29.6157 30.3672 29.2775C32.2979 28.9393 33.5889 27.1 33.2507 25.1693C32.9125 23.2386 31.0732 21.9476 29.1425 22.2859ZM24.289 26.7391C23.7602 23.7204 25.7787 20.8446 28.7974 20.3158C31.8161 19.7871 34.6919 21.8055 35.2207 24.8242C35.7495 27.8429 33.731 30.7187 30.7123 31.2475C27.6936 31.7763 24.8178 29.7578 24.289 26.7391Z" fill="#BBA390"/>
<path fill-rule="evenodd" clip-rule="evenodd" d="M8.68518 33.1618C6.75449 33.5 5.46353 35.3393 5.80174 37.27C6.13994 39.2007 7.97924 40.4917 9.90993 40.1535C11.8406 39.8153 13.1316 37.976 12.7934 36.0453C12.4552 34.1146 10.6159 32.8236 8.68518 33.1618ZM3.83173 37.6151C3.30294 34.5964 5.3214 31.7206 8.34009 31.1918C11.3588 30.663 14.2346 32.6815 14.7634 35.7002C15.2922 38.7189 13.2737 41.5947 10.255 42.1235C7.23633 42.6523 4.36053 40.6338 3.83173 37.6151Z" fill="#BBA390"/>
<path fill-rule="evenodd" clip-rule="evenodd" d="M51.4865 11.0808C49.5558 11.419 48.2648 13.2583 48.603 15.189C48.9412 17.1197 50.7805 18.4106 52.7112 18.0724C54.6419 17.7342 55.9329 15.8949 55.5946 13.9642C55.2564 12.0335 53.4171 10.7426 51.4865 11.0808ZM46.633 15.5341C46.1042 12.5154 48.1227 9.63957 51.1414 9.11077C54.1601 8.58198 57.0359 10.6004 57.5647 13.6191C58.0934 16.6378 56.075 19.5136 53.0563 20.0424C50.0376 20.5712 47.1618 18.5528 46.633 15.5341Z" fill="#BBA390"/>
<path fill-rule="evenodd" clip-rule="evenodd" d="M34.7836 96.3628C34.6883 95.8188 35.0521 95.3006 35.5961 95.2053L65.311 90C65.855 89.9047 66.3733 90.2685 66.4686 90.8125C66.5639 91.3565 66.2001 91.8747 65.6561 91.97L35.9412 97.1753C35.3972 97.2706 34.8789 96.9068 34.7836 96.3628Z" fill="#BBA390"/>
<path fill-rule="evenodd" clip-rule="evenodd" d="M77.2066 21.0772C77.7394 20.9315 78.2893 21.2453 78.435 21.778L85.8682 48.9647L98.0578 24.8766C98.3071 24.3838 98.9088 24.1865 99.4015 24.4359C99.8943 24.6852 100.092 25.2869 99.8423 25.7796L86.4805 52.1841C86.2938 52.5532 85.8991 52.7692 85.4876 52.7275C85.0761 52.6859 84.7327 52.3953 84.6237 51.9964L76.5058 22.3055C76.3601 21.7728 76.6739 21.2228 77.2066 21.0772Z" fill="#BBA390"/>
<path fill-rule="evenodd" clip-rule="evenodd" d="M99.2871 24.2937C99.8365 24.3494 100.237 24.8401 100.181 25.3895L94.8304 78.1006C94.7851 78.5462 94.4492 78.9073 94.008 78.9846L64.2931 84.1899C63.7491 84.2852 63.2308 83.9214 63.1355 83.3774C63.0402 82.8334 63.404 82.3152 63.948 82.2199L92.917 77.1453L98.1912 25.1876C98.247 24.6381 98.7376 24.2379 99.2871 24.2937Z" fill="#BBA390"/>
<path fill-rule="evenodd" clip-rule="evenodd" d="M52.6814 18.1165C53.1778 17.8745 53.7765 18.0808 54.0184 18.5773L68.7959 48.8959L76.2707 21.8171C76.4177 21.2847 76.9684 20.9723 77.5007 21.1192C78.0331 21.2662 78.3455 21.8169 78.1986 22.3493L70.0199 51.978C69.9093 52.3789 69.5621 52.6694 69.1479 52.7077C68.7338 52.7459 68.3393 52.5239 68.1571 52.1501L52.2206 19.4536C51.9786 18.9571 52.1849 18.3585 52.6814 18.1165Z" fill="#BBA390"/>
<path fill-rule="evenodd" clip-rule="evenodd" d="M93.6627 77.0139C94.2067 76.9186 94.725 77.2823 94.8203 77.8263L96.1836 85.6088C96.2789 86.1528 95.9151 86.671 95.3711 86.7663C94.8271 86.8616 94.3089 86.4979 94.2136 85.9539L92.8503 78.1714C92.755 77.6274 93.1187 77.1091 93.6627 77.0139Z" fill="#BBA390"/>
<path fill-rule="evenodd" clip-rule="evenodd" d="M82.6049 58.0859C83.1542 58.1437 83.5526 58.6359 83.4948 59.1851L81.8524 74.7862C81.7946 75.3354 81.3024 75.7338 80.7532 75.676C80.2039 75.6182 79.8056 75.126 79.8634 74.5768L81.5057 58.9757C81.5636 58.4265 82.0557 58.0281 82.6049 58.0859Z" fill="#BBA390"/>
<path fill-rule="evenodd" clip-rule="evenodd" d="M68.1802 58.6324C68.7309 58.5909 69.211 59.0037 69.2524 59.5545L70.5347 76.5878C70.5762 77.1385 70.1633 77.6186 69.6126 77.66C69.0619 77.7015 68.5818 77.2886 68.5404 76.7379L67.2581 59.7046C67.2166 59.1539 67.6294 58.6738 68.1802 58.6324Z" fill="#BBA390"/>
<path fill-rule="evenodd" clip-rule="evenodd" d="M76.309 14.0241C74.3783 14.3623 73.0873 16.2016 73.4255 18.1323C73.7637 20.063 75.603 21.354 77.5337 21.0158C79.4644 20.6776 80.7554 18.8383 80.4172 16.9076C80.079 14.9769 78.2397 13.6859 76.309 14.0241ZM71.4555 18.4774C70.9267 15.4587 72.9452 12.5829 75.9639 12.0541C78.9826 11.5253 81.8584 13.5438 82.3872 16.5625C82.916 19.5812 80.8975 22.457 77.8788 22.9858C74.8601 23.5146 71.9843 21.4961 71.4555 18.4774Z" fill="#BBA390"/>
<path fill-rule="evenodd" clip-rule="evenodd" d="M99.245 17.2985C97.3143 17.6368 96.0233 19.4761 96.3616 21.4067C96.6998 23.3374 98.5391 24.6284 100.47 24.2902C102.4 23.952 103.691 22.1127 103.353 20.182C103.015 18.2513 101.176 16.9603 99.245 17.2985ZM94.3915 21.7518C93.8628 18.7331 95.8812 15.8573 98.8999 15.3285C101.919 14.7998 104.794 16.8182 105.323 19.8369C105.852 22.8556 103.834 25.7314 100.815 26.2602C97.7961 26.789 94.9203 24.7705 94.3915 21.7518Z" fill="#BBA390"/>
<path fill-rule="evenodd" clip-rule="evenodd" d="M51.4865 11.0808C49.5558 11.419 48.2648 13.2583 48.603 15.189C48.9412 17.1197 50.7805 18.4106 52.7112 18.0724C54.6419 17.7342 55.9329 15.8949 55.5946 13.9642C55.2564 12.0335 53.4171 10.7426 51.4865 11.0808ZM46.633 15.5341C46.1042 12.5154 48.1227 9.63957 51.1414 9.11077C54.1601 8.58198 57.0359 10.6004 57.5647 13.6191C58.0934 16.6378 56.075 19.5136 53.0563 20.0424C50.0376 20.5712 47.1618 18.5528 46.633 15.5341Z" fill="#BBA390"/>
<path fill-rule="evenodd" clip-rule="evenodd" d="M64.4987 91.1587C64.4034 90.6147 64.7672 90.0965 65.3112 90.0012L95.0261 84.7959C95.5701 84.7006 96.0884 85.0644 96.1837 85.6084C96.2789 86.1524 95.9152 86.6706 95.3712 86.7659L65.6563 91.9712C65.1123 92.0665 64.594 91.7027 64.4987 91.1587Z" fill="#BBA390"/>
</svg>
