<svg width="125" height="91" viewBox="0 0 125 91" fill="none" xmlns="http://www.w3.org/2000/svg">
<path fill-rule="evenodd" clip-rule="evenodd" d="M53.8799 0.9985C53.9106 0.447044 54.3826 0.0249079 54.934 0.0556335L123.299 3.86473C123.851 3.89546 124.273 4.36741 124.242 4.91886L119.533 89.4429C119.502 89.9944 119.03 90.4165 118.478 90.3858L50.1134 86.5767C49.5619 86.5459 49.1398 86.074 49.1705 85.5225L53.8799 0.9985ZM55.8213 2.10827L51.2231 84.6353L117.591 88.3331L122.189 5.8061L55.8213 2.10827Z" fill="#BBA390"/>
<path fill-rule="evenodd" clip-rule="evenodd" d="M49.18 13.7951C49.3505 14.3204 49.0629 14.8845 48.5376 15.055L30.3253 20.9681L44.198 62.5865C44.3727 63.1104 44.0895 63.6768 43.5656 63.8514C43.0416 64.0261 42.4753 63.7429 42.3007 63.219L28.1092 20.6445C28.0249 20.3916 28.045 20.1155 28.1652 19.8775C28.2853 19.6396 28.4955 19.4594 28.7491 19.3771L47.92 13.1528C48.4453 12.9822 49.0094 13.2698 49.18 13.7951Z" fill="#BBA390"/>
<path fill-rule="evenodd" clip-rule="evenodd" d="M24.7647 27.1924C24.9602 27.7089 24.6999 28.2861 24.1833 28.4816L16.0479 31.5599L44.873 84.0801C45.1387 84.5643 44.9616 85.1722 44.4774 85.4379C43.9933 85.7036 43.3854 85.5265 43.1197 85.0424L13.7408 31.5131C13.6015 31.2592 13.579 30.9574 13.6793 30.6857C13.7796 30.414 13.9927 30.1991 14.2635 30.0966L23.4756 26.611C23.9921 26.4156 24.5693 26.6759 24.7647 27.1924Z" fill="#BBA390"/>
<path fill-rule="evenodd" clip-rule="evenodd" d="M11.1985 40.9104C11.5195 41.3598 11.4154 41.9844 10.966 42.3054L3.21248 47.8436L35.9892 80.6203C36.3797 81.0108 36.3797 81.644 35.9892 82.0345C35.5987 82.4251 34.9655 82.4251 34.575 82.0345L0.963551 48.4231C0.755696 48.2152 0.64982 47.9265 0.674066 47.6335C0.698311 47.3406 0.850221 47.0731 1.08942 46.9023L9.80349 40.6779C10.2529 40.3569 10.8775 40.461 11.1985 40.9104Z" fill="#BBA390"/>
<path fill-rule="evenodd" clip-rule="evenodd" d="M63.7796 11.2192C63.8103 10.6677 64.2822 10.2456 64.8337 10.2763L113.559 12.9912C114.111 13.0219 114.533 13.4939 114.502 14.0453L112.868 43.3801C112.837 43.9316 112.365 44.3537 111.814 44.323L63.088 41.6081C62.5365 41.5774 62.1144 41.1055 62.1451 40.554L63.7796 11.2192ZM65.7209 12.329L64.1978 39.6668L110.926 42.2704L112.45 14.9326L65.7209 12.329Z" fill="#BBA390"/>
<path fill-rule="evenodd" clip-rule="evenodd" d="M73.3724 52.389C73.4026 51.8376 73.8741 51.415 74.4256 51.4453L110.776 53.437C111.327 53.4673 111.75 53.9388 111.72 54.4903C111.689 55.0417 111.218 55.4643 110.666 55.434L74.3162 53.4423C73.7647 53.412 73.3422 52.9405 73.3724 52.389Z" fill="#BBA390"/>
<path fill-rule="evenodd" clip-rule="evenodd" d="M72.6254 63.3463C72.6545 62.7947 73.1251 62.3712 73.6766 62.4002L87.8681 63.1471C88.4196 63.1762 88.8432 63.6468 88.8142 64.1983C88.7851 64.7498 88.3145 65.1734 87.763 65.1444L73.5715 64.3974C73.02 64.3684 72.5964 63.8978 72.6254 63.3463Z" fill="#BBA390"/>
<path fill-rule="evenodd" clip-rule="evenodd" d="M71.6301 74.2948C71.6638 73.7435 72.1381 73.324 72.6893 73.3577L97.0887 74.8516C97.64 74.8853 98.0595 75.3596 98.0257 75.9108C97.992 76.4621 97.5178 76.8816 96.9665 76.8478L72.5671 75.354C72.0158 75.3202 71.5963 74.846 71.6301 74.2948Z" fill="#BBA390"/>
<path fill-rule="evenodd" clip-rule="evenodd" d="M65.4078 49.2123C64.1725 49.2123 63.1711 50.2137 63.1711 51.4489C63.1711 52.6842 64.1725 53.6856 65.4078 53.6856C66.6431 53.6856 67.6445 52.6842 67.6445 51.4489C67.6445 50.2137 66.6431 49.2123 65.4078 49.2123ZM61.1711 51.4489C61.1711 49.1091 63.068 47.2123 65.4078 47.2123C67.7476 47.2123 69.6445 49.1091 69.6445 51.4489C69.6445 53.7888 67.7476 55.6856 65.4078 55.6856C63.068 55.6856 61.1711 53.7888 61.1711 51.4489Z" fill="#BBA390"/>
<path fill-rule="evenodd" clip-rule="evenodd" d="M64.661 72.1166C63.4257 72.1166 62.4243 73.118 62.4243 74.3532C62.4243 75.5885 63.4257 76.5899 64.661 76.5899C65.8962 76.5899 66.8976 75.5885 66.8976 74.3532C66.8976 73.118 65.8962 72.1166 64.661 72.1166ZM60.4243 74.3532C60.4243 72.0134 62.3211 70.1166 64.661 70.1166C67.0008 70.1166 68.8976 72.0134 68.8976 74.3532C68.8976 76.6931 67.0008 78.5899 64.661 78.5899C62.3211 78.5899 60.4243 76.6931 60.4243 74.3532Z" fill="#BBA390"/>
<path fill-rule="evenodd" clip-rule="evenodd" d="M84.1492 11.3621C84.7002 11.3999 85.1162 11.8771 85.0785 12.4281L83.9019 29.6072L96.0869 30.4623L97.025 14.0455C97.0565 13.4942 97.529 13.0727 98.0804 13.1042C98.6318 13.1357 99.0533 13.6083 99.0217 14.1596L98.0258 31.5878C98.0106 31.8548 97.889 32.1046 97.6882 32.2813C97.4875 32.4581 97.2243 32.547 96.9575 32.5283L82.766 31.5324C82.2157 31.4938 81.8006 31.0169 81.8383 30.4665L83.0832 12.2914C83.1209 11.7405 83.5982 11.3244 84.1492 11.3621Z" fill="#BBA390"/>
<path fill-rule="evenodd" clip-rule="evenodd" d="M64.6608 31.5311L64.4533 30.5529C63.9131 30.6675 63.568 31.1983 63.6826 31.7386C63.7972 32.2788 64.3279 32.6238 64.868 32.5094L64.8708 32.5088L64.8849 32.5059L64.947 32.4935C65.0031 32.4825 65.088 32.4663 65.199 32.4464C65.421 32.4066 65.7464 32.3523 66.1522 32.296C66.9652 32.1831 68.0931 32.0629 69.3529 32.0329C71.7245 31.9764 74.3816 32.2459 76.3268 33.3187L75.8621 41.6836C75.8315 42.235 76.2537 42.7068 76.8051 42.7375C77.3565 42.7681 77.8284 42.3459 77.859 41.7945L78.357 32.8314C78.3766 32.4779 78.2078 32.1403 77.9132 31.9439C75.4031 30.2705 71.9619 29.9702 69.3053 30.0334C67.9509 30.0657 66.7446 30.1945 65.8771 30.315C65.4426 30.3753 65.0911 30.4339 64.8463 30.4777C64.7238 30.4997 64.6279 30.518 64.5615 30.531C64.5282 30.5375 64.5024 30.5428 64.4842 30.5465L64.4629 30.5509L64.4566 30.5522L64.4546 30.5526C64.4543 30.5527 64.4533 30.5529 64.6608 31.5311Z" fill="#BBA390"/>
</svg>
