<svg width="45" height="74" viewBox="0 0 45 74" fill="none" xmlns="http://www.w3.org/2000/svg">
<path d="M38.6662 41.0033C39.1618 40.5029 39.8435 40.6212 40.4672 40.3017C43.3774 38.8106 42.1302 37.639 42.1302 37.639C36.5175 37.639 36.9333 31.142 36.9333 31.142V19.1065V17.7219V15.4852C36.9333 11.4379 35.3742 7.81656 32.7757 5.26035C30.1773 2.59763 26.6434 1 22.6937 1C14.7944 1 8.55813 7.81656 8.55813 15.9112V16.8698V19.852V30.7159C8.55813 35.5088 4.60847 35.9349 3.98484 37.7455C3.46515 39.2366 6.94749 39.502 7.44301 40.5029" stroke="#59738C" stroke-width="2" stroke-miterlimit="10" stroke-linecap="round" stroke-linejoin="round"/>
<path d="M22.9021 36.7871C20.5116 36.7871 19.2643 35.0829 19.2643 35.0829C19.2643 35.0829 16.8737 32.6332 14.3792 30.6096C11.8847 28.5859 12.1965 23.793 12.1965 23.793C8.24686 22.4084 7.93505 16.3374 10.1177 15.2723C12.3005 14.2072 13.028 17.935 13.028 17.935C13.028 17.935 20.5116 16.5504 22.0706 11.864C22.0706 11.864 22.1746 10.2664 24.773 11.012C27.3715 11.7575 33.0881 13.4617 32.8802 17.935C32.8802 17.935 33.6078 14.3137 35.7905 15.2723C37.9732 16.2309 37.6614 22.4084 33.7117 23.793C33.7117 23.793 34.0235 28.5859 31.529 30.6096C29.0345 32.6332 26.6439 35.0829 26.6439 35.0829C26.6439 35.0829 25.1888 36.7871 22.9021 36.7871Z" stroke="#59738C" stroke-width="2" stroke-miterlimit="10" stroke-linecap="round" stroke-linejoin="round"/>
<path d="M17.2893 38.7041V33.3787" stroke="#59738C" stroke-width="2" stroke-miterlimit="10" stroke-linecap="round" stroke-linejoin="round"/>
<path d="M20.0958 46.5857L17.2894 38.7041C17.2894 38.7041 14.691 39.3432 13.4437 40.6213C13.1319 40.9408 12.924 41.2603 12.7161 41.5798C12.0925 43.3905 11.6768 45.6272 11.6768 45.6272C11.6768 45.6272 12.3583 46.6923 15.3725 46.5857" stroke="#59738C" stroke-width="2" stroke-miterlimit="10" stroke-linecap="round" stroke-linejoin="round"/>
<path d="M28.3069 38.7041V33.3787" stroke="#59738C" stroke-width="2" stroke-miterlimit="10" stroke-linecap="round" stroke-linejoin="round"/>
<path d="M30.3858 46.5858C33.4 46.6923 33.9197 45.5207 33.9197 45.5207C33.9197 45.5207 33.504 43.3905 32.8803 41.4734C32.7764 41.1539 32.5685 40.8343 32.1528 40.5148C30.8016 39.2367 28.3071 38.5977 28.3071 38.5977L25.5007 46.4793" stroke="#59738C" stroke-width="2" stroke-miterlimit="10" stroke-linecap="round" stroke-linejoin="round"/>
<path d="M4.46925 66.3963H1V49.9939C1 46.1596 3.28664 42.8578 6.50873 41.3667C7.65205 40.8342 8.8993 40.5146 10.2505 40.5146H13.3902" stroke="#59738C" stroke-width="2" stroke-miterlimit="10" stroke-linecap="round" stroke-linejoin="round"/>
<path d="M40.9876 46.5857H4.71313V69.4851H40.9876V46.5857Z" stroke="#59738C" stroke-width="2" stroke-miterlimit="10" stroke-linecap="round" stroke-linejoin="round"/>
<path d="M38.4929 72.9999H7.10354C5.23266 72.9999 3.67358 71.4023 3.67358 69.4851H42.1307C42.0268 71.4023 40.4677 72.9999 38.4929 72.9999Z" stroke="#59738C" stroke-width="2" stroke-miterlimit="10" stroke-linecap="round" stroke-linejoin="round"/>
<path d="M22.9025 59.3669C23.6487 59.3669 24.2537 58.747 24.2537 57.9823C24.2537 57.2176 23.6487 56.5977 22.9025 56.5977C22.1562 56.5977 21.5513 57.2176 21.5513 57.9823C21.5513 58.747 22.1562 59.3669 22.9025 59.3669Z" stroke="#59738C" stroke-width="2" stroke-miterlimit="10" stroke-linecap="round" stroke-linejoin="round"/>
<path d="M41.1443 66.3963H44.0001V49.9939C44.0001 44.775 39.8426 40.5147 34.7496 40.5147L32.2234 40.5029" stroke="#59738C" stroke-width="2" stroke-miterlimit="10" stroke-linecap="round" stroke-linejoin="round"/>
</svg>
