<svg width="72" height="72" viewBox="0 0 72 72" fill="none" xmlns="http://www.w3.org/2000/svg">
<path d="M3.375 3.375H68.625V12.375H3.375V3.375Z" fill="#12253B"/>
<path d="M46.125 32.625C46.7217 32.625 47.294 32.8621 47.716 33.284C48.1379 33.706 48.375 34.2783 48.375 34.875V39.375H64.125V16.875H7.875V39.375H43.875V34.875C43.875 34.2783 44.1121 33.706 44.534 33.284C44.956 32.8621 45.5283 32.625 46.125 32.625ZM32.625 32.625V23.625L41.625 28.125L32.625 32.625Z" fill="#12253B"/>
<path d="M61.875 46.125V60.615C61.864 61.0429 61.7924 61.4672 61.6624 61.875H68.625V43.875H59.625C60.2217 43.875 60.794 44.1121 61.216 44.534C61.6379 44.956 61.875 45.5283 61.875 46.125Z" fill="#12253B"/>
<path d="M35.4375 50.1323C35.7824 49.7795 36.2004 49.5066 36.6621 49.3329C37.1238 49.1591 37.618 49.0887 38.1098 49.1266C38.6017 49.1644 39.0793 49.3097 39.5089 49.552C39.9386 49.7944 40.3099 50.128 40.5967 50.5294L43.875 55.125V43.875H3.375V61.875H42.3304L34.884 50.6936L35.4375 50.1323Z" fill="#12253B"/>
<path d="M42.1279 27.1182L33.1279 22.6182C32.9563 22.5324 32.7657 22.492 32.5741 22.5007C32.3825 22.5093 32.1963 22.5669 32.0332 22.6677C31.8701 22.7686 31.7355 22.9095 31.6422 23.0771C31.5489 23.2446 31.4999 23.4333 31.5 23.625V32.625C31.4999 32.8168 31.5489 33.0054 31.6422 33.173C31.7355 33.3405 31.8701 33.4815 32.0332 33.5823C32.1963 33.6832 32.3825 33.7407 32.5741 33.7494C32.7657 33.7581 32.9563 33.7176 33.1279 33.6319L42.1279 29.1319C42.3151 29.0386 42.4726 28.895 42.5827 28.7171C42.6927 28.5392 42.7511 28.3342 42.7511 28.125C42.7511 27.9159 42.6927 27.7108 42.5827 27.533C42.4726 27.3551 42.3151 27.2115 42.1279 27.1182ZM33.75 30.8048V25.4453L39.1095 28.125L33.75 30.8048Z" fill="#59738C"/>
<path d="M12.375 47.25H10.125C9.82663 47.25 9.54048 47.3685 9.32951 47.5795C9.11853 47.7905 9 48.0766 9 48.375C9 48.6734 9.11853 48.9595 9.32951 49.1705C9.54048 49.3815 9.82663 49.5 10.125 49.5H12.375C12.6734 49.5 12.9595 49.3815 13.1705 49.1705C13.3815 48.9595 13.5 48.6734 13.5 48.375C13.5 48.0766 13.3815 47.7905 13.1705 47.5795C12.9595 47.3685 12.6734 47.25 12.375 47.25Z" fill="#59738C"/>
<path d="M30.375 47.25H16.875C16.5766 47.25 16.2905 47.3685 16.0795 47.5795C15.8685 47.7905 15.75 48.0766 15.75 48.375C15.75 48.6734 15.8685 48.9595 16.0795 49.1705C16.2905 49.3815 16.5766 49.5 16.875 49.5H30.375C30.6734 49.5 30.9595 49.3815 31.1705 49.1705C31.3815 48.9595 31.5 48.6734 31.5 48.375C31.5 48.0766 31.3815 47.7905 31.1705 47.5795C30.9595 47.3685 30.6734 47.25 30.375 47.25Z" fill="#59738C"/>
<path d="M12.375 51.75H10.125C9.82663 51.75 9.54048 51.8685 9.32951 52.0795C9.11853 52.2905 9 52.5766 9 52.875C9 53.1734 9.11853 53.4595 9.32951 53.6705C9.54048 53.8815 9.82663 54 10.125 54H12.375C12.6734 54 12.9595 53.8815 13.1705 53.6705C13.3815 53.4595 13.5 53.1734 13.5 52.875C13.5 52.5766 13.3815 52.2905 13.1705 52.0795C12.9595 51.8685 12.6734 51.75 12.375 51.75Z" fill="#59738C"/>
<path d="M30.375 51.75H16.875C16.5766 51.75 16.2905 51.8685 16.0795 52.0795C15.8685 52.2905 15.75 52.5766 15.75 52.875C15.75 53.1734 15.8685 53.4595 16.0795 53.6705C16.2905 53.8815 16.5766 54 16.875 54H30.375C30.6734 54 30.9595 53.8815 31.1705 53.6705C31.3815 53.4595 31.5 53.1734 31.5 52.875C31.5 52.5766 31.3815 52.2905 31.1705 52.0795C30.9595 51.8685 30.6734 51.75 30.375 51.75Z" fill="#59738C"/>
<path d="M12.375 56.25H10.125C9.82663 56.25 9.54048 56.3685 9.32951 56.5795C9.11853 56.7905 9 57.0766 9 57.375C9 57.6734 9.11853 57.9595 9.32951 58.1705C9.54048 58.3815 9.82663 58.5 10.125 58.5H12.375C12.6734 58.5 12.9595 58.3815 13.1705 58.1705C13.3815 57.9595 13.5 57.6734 13.5 57.375C13.5 57.0766 13.3815 56.7905 13.1705 56.5795C12.9595 56.3685 12.6734 56.25 12.375 56.25Z" fill="#59738C"/>
<path d="M30.375 56.25H16.875C16.5766 56.25 16.2905 56.3685 16.0795 56.5795C15.8685 56.7905 15.75 57.0766 15.75 57.375C15.75 57.6734 15.8685 57.9595 16.0795 58.1705C16.2905 58.3815 16.5766 58.5 16.875 58.5H30.375C30.6734 58.5 30.9595 58.3815 31.1705 58.1705C31.3815 57.9595 31.5 57.6734 31.5 57.375C31.5 57.0766 31.3815 56.7905 31.1705 56.5795C30.9595 56.3685 30.6734 56.25 30.375 56.25Z" fill="#59738C"/>
<path d="M68.625 2.25H3.375C3.07663 2.25 2.79048 2.36853 2.5795 2.5795C2.36853 2.79048 2.25 3.07663 2.25 3.375V61.875C2.25 62.1734 2.36853 62.4595 2.5795 62.6705C2.79048 62.8815 3.07663 63 3.375 63H41.625C41.6561 62.9979 41.6866 62.9902 41.715 62.9775L42.1875 63.6862C42.5566 64.239 42.7524 64.8892 42.75 65.5537V68.625C42.75 68.9234 42.8685 69.2095 43.0795 69.4205C43.2905 69.6315 43.5766 69.75 43.875 69.75H59.625C59.9234 69.75 60.2095 69.6315 60.4205 69.4205C60.6315 69.2095 60.75 68.9234 60.75 68.625V66.6113C60.746 65.9464 60.942 65.2958 61.3125 64.7437L62.0662 63.63C62.1934 63.4262 62.3098 63.2159 62.415 63H68.625C68.9234 63 69.2095 62.8815 69.4205 62.6705C69.6315 62.4595 69.75 62.1734 69.75 61.875V3.375C69.75 3.07663 69.6315 2.79048 69.4205 2.5795C69.2095 2.36853 68.9234 2.25 68.625 2.25ZM60.75 60.5812C60.736 61.2223 60.541 61.8463 60.1875 62.3813L59.445 63.495C58.8271 64.4167 58.4981 65.5016 58.5 66.6113V67.5H45V65.5537C45.0019 64.4441 44.6729 63.3592 44.055 62.4375L36.3263 50.8275C36.5553 50.621 36.8241 50.4635 37.1163 50.3649C37.4084 50.2662 37.7177 50.2284 38.025 50.2537C38.3528 50.2763 38.6715 50.3718 38.9576 50.5333C39.2438 50.6949 39.4901 50.9184 39.6787 51.1875L42.9637 55.7775C43.0997 55.9747 43.2964 56.1221 43.5238 56.1972C43.7513 56.2724 43.9971 56.2711 44.2238 56.1938C44.4493 56.1202 44.6458 55.9772 44.7852 55.7853C44.9247 55.5933 44.9998 55.3622 45 55.125V34.875C45 34.5766 45.1185 34.2905 45.3295 34.0795C45.5405 33.8685 45.8266 33.75 46.125 33.75C46.4234 33.75 46.7095 33.8685 46.9205 34.0795C47.1315 34.2905 47.25 34.5766 47.25 34.875V48.375C47.25 48.6734 47.3685 48.9595 47.5795 49.1705C47.7905 49.3815 48.0766 49.5 48.375 49.5C48.6734 49.5 48.9595 49.3815 49.1705 49.1705C49.3815 48.9595 49.5 48.6734 49.5 48.375V46.125C49.5 45.8266 49.6185 45.5405 49.8295 45.3295C50.0405 45.1185 50.3266 45 50.625 45C50.9234 45 51.2095 45.1185 51.4205 45.3295C51.6315 45.5405 51.75 45.8266 51.75 46.125V48.375C51.75 48.6734 51.8685 48.9595 52.0795 49.1705C52.2905 49.3815 52.5766 49.5 52.875 49.5C53.1734 49.5 53.4595 49.3815 53.6705 49.1705C53.8815 48.9595 54 48.6734 54 48.375V46.125C54 45.8266 54.1185 45.5405 54.3295 45.3295C54.5405 45.1185 54.8266 45 55.125 45C55.4234 45 55.7095 45.1185 55.9205 45.3295C56.1315 45.5405 56.25 45.8266 56.25 46.125V48.375C56.25 48.6734 56.3685 48.9595 56.5795 49.1705C56.7905 49.3815 57.0766 49.5 57.375 49.5C57.6734 49.5 57.9595 49.3815 58.1705 49.1705C58.3815 48.9595 58.5 48.6734 58.5 48.375V46.125C58.5 45.8266 58.6185 45.5405 58.8295 45.3295C59.0405 45.1185 59.3266 45 59.625 45C59.9234 45 60.2095 45.1185 60.4205 45.3295C60.6315 45.5405 60.75 45.8266 60.75 46.125V60.5812ZM67.5 42.75H65.25C64.9516 42.75 64.6655 42.8685 64.4545 43.0795C64.2435 43.2905 64.125 43.5766 64.125 43.875C64.125 44.1734 64.2435 44.4595 64.4545 44.6705C64.6655 44.8815 64.9516 45 65.25 45H67.5V60.75H62.9888C62.9888 60.705 63 60.66 63 60.615V46.125C62.9973 45.2307 62.6409 44.3738 62.0085 43.7415C61.3762 43.1091 60.5193 42.7527 59.625 42.75C58.7919 42.7522 57.9896 43.0651 57.375 43.6275C56.7616 43.0632 55.9585 42.75 55.125 42.75C54.2915 42.75 53.4884 43.0632 52.875 43.6275C52.2604 43.0651 51.4581 42.7522 50.625 42.75C50.2412 42.753 49.8608 42.8215 49.5 42.9525V34.875C49.5 33.9799 49.1444 33.1214 48.5115 32.4885C47.8785 31.8556 47.0201 31.5 46.125 31.5C45.2299 31.5 44.3715 31.8556 43.7385 32.4885C43.1056 33.1214 42.75 33.9799 42.75 34.875V51.615L41.5125 49.8713C41.1288 49.3368 40.6329 48.8927 40.0595 48.5701C39.4861 48.2475 38.8491 48.0543 38.1931 48.0039C37.5371 47.9535 36.8781 48.0472 36.2621 48.2785C35.6462 48.5097 35.0883 48.8729 34.6275 49.3425L34.0763 49.905C33.8982 50.0901 33.7889 50.3305 33.7664 50.5863C33.7438 50.8421 33.8095 51.0979 33.9525 51.3112L40.23 60.75H4.5V45H39.375C39.6734 45 39.9595 44.8815 40.1705 44.6705C40.3815 44.4595 40.5 44.1734 40.5 43.875C40.5 43.5766 40.3815 43.2905 40.1705 43.0795C39.9595 42.8685 39.6734 42.75 39.375 42.75H4.5V13.5H67.5V42.75ZM67.5 11.25H4.5V4.5H67.5V11.25Z" fill="#59738C"/>
<path d="M9 6.75H7.875C7.57663 6.75 7.29048 6.86853 7.07951 7.07951C6.86853 7.29048 6.75 7.57663 6.75 7.875C6.75 8.17337 6.86853 8.45952 7.07951 8.67049C7.29048 8.88147 7.57663 9 7.875 9H9C9.29837 9 9.58452 8.88147 9.7955 8.67049C10.0065 8.45952 10.125 8.17337 10.125 7.875C10.125 7.57663 10.0065 7.29048 9.7955 7.07951C9.58452 6.86853 9.29837 6.75 9 6.75Z" fill="#59738C"/>
<path d="M14.625 6.75H13.5C13.2016 6.75 12.9155 6.86853 12.7045 7.07951C12.4935 7.29048 12.375 7.57663 12.375 7.875C12.375 8.17337 12.4935 8.45952 12.7045 8.67049C12.9155 8.88147 13.2016 9 13.5 9H14.625C14.9234 9 15.2095 8.88147 15.4205 8.67049C15.6315 8.45952 15.75 8.17337 15.75 7.875C15.75 7.57663 15.6315 7.29048 15.4205 7.07951C15.2095 6.86853 14.9234 6.75 14.625 6.75Z" fill="#59738C"/>
<path d="M20.25 6.75H19.125C18.8266 6.75 18.5405 6.86853 18.3295 7.07951C18.1185 7.29048 18 7.57663 18 7.875C18 8.17337 18.1185 8.45952 18.3295 8.67049C18.5405 8.88147 18.8266 9 19.125 9H20.25C20.5484 9 20.8345 8.88147 21.0455 8.67049C21.2565 8.45952 21.375 8.17337 21.375 7.875C21.375 7.57663 21.2565 7.29048 21.0455 7.07951C20.8345 6.86853 20.5484 6.75 20.25 6.75Z" fill="#59738C"/>
<path d="M65.25 39.375V16.875C65.25 16.5766 65.1315 16.2905 64.9205 16.0795C64.7095 15.8685 64.4234 15.75 64.125 15.75H7.875C7.57663 15.75 7.29048 15.8685 7.07951 16.0795C6.86853 16.2905 6.75 16.5766 6.75 16.875V39.375C6.75 39.6734 6.86853 39.9595 7.07951 40.1705C7.29048 40.3815 7.57663 40.5 7.875 40.5H39.375C39.6734 40.5 39.9595 40.3815 40.1705 40.1705C40.3815 39.9595 40.5 39.6734 40.5 39.375C40.5 39.0766 40.3815 38.7905 40.1705 38.5795C39.9595 38.3685 39.6734 38.25 39.375 38.25H9V18H63V38.25H52.875C52.5766 38.25 52.2905 38.3685 52.0795 38.5795C51.8685 38.7905 51.75 39.0766 51.75 39.375C51.75 39.6734 51.8685 39.9595 52.0795 40.1705C52.2905 40.3815 52.5766 40.5 52.875 40.5H64.125C64.4234 40.5 64.7095 40.3815 64.9205 40.1705C65.1315 39.9595 65.25 39.6734 65.25 39.375Z" fill="#59738C"/>
</svg>
