<svg width="55" height="73" viewBox="0 0 55 73" fill="none" xmlns="http://www.w3.org/2000/svg">
<path d="M53.9999 1H1V72H53.9999V1Z" stroke="#59738C" stroke-width="2" stroke-linecap="round" stroke-linejoin="round"/>
<path d="M45.2639 20.3872H9.73315V26.6126H45.2639V20.3872Z" stroke="#59738C" stroke-width="2" stroke-linecap="round" stroke-linejoin="round"/>
<path d="M41.6264 52.6124H13.476C13.2987 52.614 13.128 52.5455 13.0012 52.4218C12.8744 52.2981 12.8019 52.1293 12.7996 51.9523V31.8359C12.7996 32.019 12.8507 34.1161 14.9821 38.4814C14.9821 38.4814 16.5724 41.0346 14.4831 41.0346H42.3028" stroke="#59738C" stroke-width="2" stroke-linecap="round" stroke-linejoin="round"/>
<path d="M14.483 41.0346C16.5874 41.0346 14.982 38.4814 14.982 38.4814C12.8506 34.1191 12.8115 32.019 12.8115 31.8359" stroke="#59738C" stroke-width="2" stroke-linecap="round" stroke-linejoin="round"/>
<path d="M15.2167 46.8223C16.338 46.8223 15.2798 44.9262 15.2798 44.9262C13.2506 42.31 12.8147 41.0259 12.8147 41.0259H42.3179" stroke="#59738C" stroke-width="2" stroke-linecap="round" stroke-linejoin="round"/>
<path d="M42.3027 46.8223H12.8115C12.8115 46.8223 13.2474 48.1004 15.2766 50.7225C15.2766 50.7225 16.3348 52.6217 15.2135 52.6217" stroke="#59738C" stroke-width="2" stroke-linecap="round" stroke-linejoin="round"/>
<path d="M43.7218 41.0349H43.5294H42.3028H41.6475" stroke="#59738C" stroke-width="2" stroke-linecap="round" stroke-linejoin="round"/>
<path d="M42.3027 41.0349C42.6785 41.665 43.2287 43.0481 44.1065 44.9352C44.1065 44.9352 45.1647 46.8313 44.0434 46.8313" stroke="#59738C" stroke-width="2" stroke-linecap="round" stroke-linejoin="round"/>
<path d="M40.9709 52.6126H44.0493C45.1707 52.6126 44.1124 50.7135 44.1124 50.7135C43.433 49.1474 42.6785 47.4553 42.3087 46.8132" stroke="#59738C" stroke-width="2" stroke-linecap="round" stroke-linejoin="round"/>
<path d="M41.6475 46.8223H42.3028H44.0494" stroke="#59738C" stroke-width="2" stroke-linecap="round" stroke-linejoin="round"/>
<path d="M12.7996 26.6125V31.8359" stroke="#59738C" stroke-width="2" stroke-linecap="round" stroke-linejoin="round"/>
<path d="M41.8456 26.6189V31.8273C41.8456 31.8273 41.7945 33.9124 44.0281 38.4877C44.0281 38.4877 45.6184 41.0409 43.5291 41.0409" stroke="#59738C" stroke-width="2" stroke-linecap="round" stroke-linejoin="round"/>
<path d="M38.2263 26.6125V44.9078" stroke="#59738C" stroke-width="2" stroke-linecap="round" stroke-linejoin="round"/>
<path d="M39.2695 45.9463C39.2695 45.373 38.8038 44.9082 38.2294 44.9082C37.6549 44.9082 37.1892 45.373 37.1892 45.9463V47.1284C37.1892 47.7017 37.6549 48.1664 38.2294 48.1664C38.8038 48.1664 39.2695 47.7017 39.2695 47.1284V45.9463Z" fill="white" stroke="#59738C" stroke-width="2" stroke-linecap="round" stroke-linejoin="round"/>
<path d="M53.9999 10.8797L49.0486 5.93835L44.1003 1H53.9999V10.8797Z" stroke="#59738C" stroke-width="2" stroke-linecap="round" stroke-linejoin="round"/>
</svg>
