<svg width="151" height="40" viewBox="0 0 151 40" fill="none" xmlns="http://www.w3.org/2000/svg">
<path d="M30.7377 39.9957H28.6798H21.0116L18.5511 27.2628L16.0905 39.9957H6.36637L0.0708008 7.44111H7.73895L11.2284 25.4897L14.7179 7.44206H22.3842L25.8737 25.4906L29.3641 7.44302H37.0323L30.7377 39.9957ZM74.6791 39.9957H72.6202H66.2143L63.1207 23.9974L60.032 39.9957H52.3648L58.6594 7.44016H66.3266L69.8161 25.4887L73.3065 7.44016H80.9737L74.6782 39.9957H74.6791ZM89.4024 39.9957H81.7343L89.47 0H97.1296L96.7241 2.10454L96.6698 2.38165L96.113 5.28515L95.6961 7.44302L89.4024 39.9957ZM45.3839 39.9957H37.7176L44.0122 7.44016H51.6794L45.3839 39.9957ZM143.782 39.9957H123.171L124.608 32.5527H145.212L143.784 39.9957H143.782ZM116.985 39.9957H96.3814L97.8178 32.5527H118.421L116.984 39.9957H116.985ZM146.221 27.3742H125.613L127.049 19.9303H147.652L146.224 27.3733L146.221 27.3742ZM119.432 27.3742H98.8229L100.259 19.9303H120.869L119.433 27.3695L119.432 27.3742ZM148.634 14.8889H128.027L129.463 7.44492H150.071L148.634 14.8879V14.8889ZM121.844 14.8889H101.242L102.681 7.44016H123.285L121.848 14.8832L121.844 14.8889Z" fill="#FF7A44"/>
</svg>
